<svg width="36" height="36" viewBox="0 0 36 36" fill="none" xmlns="http://www.w3.org/2000/svg">
<path d="M31.9664 14.4787C31.9133 14.2482 31.8152 14.0305 31.6779 13.8379C31.5405 13.6454 31.3666 13.4817 31.166 13.3564C30.9655 13.231 30.7422 13.1464 30.5089 13.1073C30.2756 13.0683 30.0369 13.0755 29.8064 13.1287C29.576 13.1819 29.3582 13.28 29.1657 13.4173C28.9731 13.5546 28.8095 13.7285 28.6841 13.9291C28.5587 14.1297 28.4741 14.353 28.435 14.5863C28.396 14.8196 28.4033 15.0582 28.4564 15.2887C29.1324 17.9987 28.746 20.8646 27.3764 23.2987C24.4064 28.4287 17.7464 30.2287 12.6164 27.2587C7.48644 24.3787 5.68644 17.7187 8.65644 12.5887C11.6264 7.45871 18.2864 5.65871 23.4164 8.62871C23.6174 8.7469 23.8396 8.82436 24.0705 8.85666C24.3013 8.88897 24.5363 8.87548 24.7619 8.81698C24.9876 8.75848 25.1995 8.65611 25.3856 8.51571C25.5716 8.37531 25.7283 8.19963 25.8464 7.99871C25.9646 7.79779 26.0421 7.57555 26.0744 7.3447C26.1067 7.11384 26.0932 6.87888 26.0347 6.65323C25.9762 6.42759 25.8738 6.21567 25.7334 6.02959C25.593 5.84351 25.4174 5.6869 25.2164 5.56871C18.2864 1.51871 9.55644 3.85871 5.50644 10.7887C4.3148 12.8358 3.64527 15.1448 3.55692 17.5118C3.46857 19.8789 3.96411 22.2313 4.99983 24.3616C6.03555 26.4919 7.57961 28.3345 9.4958 29.727C11.412 31.1194 13.6414 32.0189 15.9874 32.3461C18.3334 32.6732 20.7239 32.418 22.948 31.6029C25.172 30.7879 27.1613 29.438 28.7403 27.6723C30.3193 25.9067 31.4396 23.7796 32.0022 21.4787C32.5648 19.1778 32.5525 16.7738 31.9664 14.4787ZM12.2564 16.4587C11.8507 16.1961 11.3572 16.1055 10.8846 16.2068C10.412 16.3081 9.999 16.5929 9.73644 16.9987C9.47388 17.4045 9.38326 17.898 9.48453 18.3706C9.5858 18.8431 9.87066 19.2561 10.2764 19.5187L17.4764 24.0187C17.7736 24.2021 18.1173 24.2958 18.4664 24.2887C18.7448 24.2829 19.0184 24.2153 19.2675 24.0907C19.5165 23.9662 19.7347 23.7879 19.9064 23.5687L29.3564 11.4187C29.9864 10.6087 29.8064 9.52871 28.9964 8.89871C28.1864 8.26871 27.1064 8.44871 26.4764 9.25871L18.0164 20.0587L12.2564 16.4587Z" fill="#33D6AD"/>
</svg>
