<svg width="22" height="23" viewBox="0 0 22 23" fill="none" xmlns="http://www.w3.org/2000/svg">
<path d="M19.5316 9.65908C19.4991 9.51824 19.4391 9.38518 19.3552 9.26749C19.2713 9.14981 19.165 9.04981 19.0424 8.9732C18.9199 8.89659 18.7834 8.84488 18.6408 8.82101C18.4983 8.79714 18.3524 8.80158 18.2116 8.83408C18.0707 8.86658 17.9377 8.92651 17.82 9.01044C17.7023 9.09436 17.6023 9.20065 17.5257 9.32322C17.4491 9.44579 17.3974 9.58226 17.3735 9.72481C17.3496 9.86737 17.3541 10.0132 17.3866 10.1541C17.7997 11.8102 17.5635 13.5615 16.7266 15.0491C14.9116 18.1841 10.8416 19.2841 7.70657 17.4691C4.57157 15.7091 3.47157 11.6391 5.28657 8.50408C7.10157 5.36908 11.1716 4.26908 14.3066 6.08408C14.4294 6.15631 14.5652 6.20364 14.7063 6.22339C14.8473 6.24313 14.9909 6.23489 15.1288 6.19914C15.2667 6.16339 15.3962 6.10082 15.5099 6.01503C15.6236 5.92923 15.7193 5.82187 15.7916 5.69908C15.8638 5.5763 15.9111 5.44049 15.9309 5.29941C15.9506 5.15833 15.9424 5.01474 15.9066 4.87685C15.8709 4.73895 15.8083 4.60945 15.7225 4.49573C15.6367 4.38201 15.5294 4.28631 15.4066 4.21408C11.1716 1.73908 5.83657 3.16908 3.36157 7.40408C2.63335 8.65511 2.22419 10.0661 2.1702 11.5127C2.11621 12.9592 2.41904 14.3968 3.05198 15.6986C3.68492 17.0005 4.62851 18.1265 5.79952 18.9775C6.97053 19.8284 8.33296 20.3781 9.76663 20.578C11.2003 20.778 12.6611 20.622 14.0203 20.1239C15.3794 19.6258 16.5951 18.8008 17.5601 17.7219C18.525 16.6429 19.2096 15.343 19.5534 13.9369C19.8973 12.5307 19.8897 11.0616 19.5316 9.65908ZM7.48657 10.8691C7.2386 10.7086 6.93704 10.6533 6.64823 10.7151C6.35942 10.777 6.10703 10.9511 5.94657 11.1991C5.78612 11.4471 5.73074 11.7486 5.79263 12.0374C5.85452 12.3262 6.0286 12.5786 6.27657 12.7391L10.6766 15.4891C10.8582 15.6012 11.0682 15.6584 11.2816 15.6541C11.4517 15.6505 11.6189 15.6092 11.7711 15.5331C11.9233 15.457 12.0567 15.348 12.1616 15.2141L17.9366 7.78908C18.3216 7.29408 18.2116 6.63408 17.7166 6.24908C17.2216 5.86408 16.5616 5.97408 16.1766 6.46908L11.0066 13.0691L7.48657 10.8691Z" fill="#33D6AD"/>
</svg>
